<?xml version="1.0" encoding="utf-8"?>
<!-- Generator: Adobe Illustrator 23.0.5, SVG Export Plug-In . SVG Version: 6.00 Build 0)  -->
<svg version="1.1" id="Layer_1" xmlns="http://www.w3.org/2000/svg" xmlns:xlink="http://www.w3.org/1999/xlink" x="0px" y="0px"
     viewBox="0 0 16 16" style="enable-background:new 0 0 16 16;" xml:space="preserve">
<style type="text/css">
    .st0{fill:none;stroke:#ED2024;stroke-width:1.6619;stroke-miterlimit:10;}
    .st1{fill:#ED2024;}
</style>
<g>
    <path class="st0" d="M13.51,15H2.65c-0.87,0-1.57-0.7-1.57-1.57V2.57C1.08,1.7,1.79,1,2.65,1h10.86c0.87,0,1.57,0.7,1.57,1.57
        v10.86C15.08,14.3,14.38,15,13.51,15z"/>
    <g>
        <path class="st1" d="M11.83,4.25c0.06,0.68,0,1.25-0.05,1.83c-0.33,0.29-0.63,0.62-0.95,0.93L8.96,8.88l-1.87,1.87l-0.94,0.94
            c-0.58,0.04-1.15,0.1-1.82,0.06c-0.04-0.67,0.01-1.24,0.06-1.82l0.94-0.94L7.2,7.12l1.87-1.87C9.38,4.93,9.71,4.63,10,4.3
            C10.58,4.25,11.15,4.2,11.83,4.25z"/>
    </g>
</g>
</svg>